# xmcd CD database file
#
# Track frame offsets:
#	150
#	12616
#	25863
#	37489
#	50466
#	62512
#	73089
#	85527
#	100111
#	113994
#
# Disc length: 1694 seconds
#
# Revision: 0
# Processed by: cddbd v1.5.1PL0 Copyright (c) Steve Scherf et al.
# Submitted via: CDex 1.51
#
DISCID=84069c0a
DTITLE=Various Artist - Country's Most Wanted
DYEAR=2002
DGENRE=Country
TTITLE0=Wasted Days and Wasted Nights (Freddy Fender)
TTITLE1=Ruby Don't Take You Love to Town (Kenny Rogers)
TTITLE2=Touch Me (Willie Nelson)
TTITLE3=Boppin' the Blues (Carl Perkins)
TTITLE4=Bring Him Safely Home to me (Sandy Posey)
TTITLE5=Three Cigarettes in the Ashtray (Patsy Cline)
TTITLE6=Six White Horses (Tommy Cash)
TTITLE7=Freightliner Fever (Boxcar Willie)
TTITLE8=The Rains Came (Freddy Fender)
TTITLE9=Somebody Special (Donna Fargo)
EXTD=YEAR: 2002
EXTT0=
EXTT1=
EXTT2=
EXTT3=
EXTT4=
EXTT5=
EXTT6=
EXTT7=
EXTT8=
EXTT9=
PLAYORDER=
